<svg width="27" height="27" viewBox="0 0 27 27" fill="none" xmlns="http://www.w3.org/2000/svg">
<path d="M6.77067 12.9644C6.6652 14.2924 7.83185 15.2705 8.62803 15.2705C9.42532 15.2333 12.5305 12.6166 12.5305 12.6166C13.9909 10.7696 13.9972 9.94829 13.9972 9.30277C13.8754 6.45284 8.68319 10.7936 6.77067 12.9644ZM19.6149 11.8613C20.3197 10.3697 19.3715 8.71293 17.309 10.1681C15.67 11.2099 13.5481 13.3529 12.5326 14.1918C12.0616 15.1432 13.2556 17.754 15.1477 16.3755C17.3841 14.7506 19.0173 13.2228 19.6149 11.8613ZM21.5345 2.83785L21.9887 0H27V5.18031L25.1634 5.20225L22.952 12.6923C23.0896 15.3358 21.7491 15.3788 21.5779 16.5918C21.1475 19.6403 17.7383 22.1348 16.4349 22.1348C15.5656 22.1096 14.9301 21.1132 14.7166 20.245C17.1677 17.5339 20.4638 15.4034 20.4638 15.4034C20.6696 13.9776 20.2173 13.5237 21.7385 12.3087L23.1902 4.67606C21.9504 3.85736 21.3719 3.87007 21.5345 2.83785ZM11.7529 15.4783C13.0239 18.0393 14.8604 18.106 17.7077 14.8455C17.7753 15.1469 17.8494 15.4628 17.7135 16.2211C11.9213 21.4017 6.46597 26.4437 4.80542 27H0V25.7112C0.781523 24.6274 7.1955 19.3371 11.7529 15.4783ZM20.3132 20.4369C20.0524 22.6536 18.0314 24.5934 15.3307 27H6.77173L13.9873 20.9221C15.2329 23.7568 17.4453 23.3462 20.3132 20.4369H20.3132ZM10.1914 15.4053L0 24.0919V18.4562L5.99748 13.5738C6.31832 15.3911 8.28378 16.9913 10.1914 15.4054V15.4053Z" fill="#C4C4C4"/>
</svg>
