<svg width="28" height="26" viewBox="0 0 28 26" fill="none" xmlns="http://www.w3.org/2000/svg">
<path d="M28 12.9084C28 11.0534 25.6772 9.2952 22.1153 8.20553C22.9378 4.57603 22.5727 1.68737 20.9627 0.7622C20.5726 0.543707 20.131 0.433727 19.684 0.4437V1.71537C19.9465 1.71537 20.1577 1.76787 20.335 1.8647C21.1108 2.31037 21.448 4.00437 21.1855 6.18487C21.1225 6.72153 21.0198 7.2862 20.8938 7.86253C19.7011 7.57511 18.4905 7.36737 17.2702 7.2407C16.5432 6.2377 15.75 5.28436 14.896 4.38703C16.7568 2.65803 18.5033 1.7107 19.691 1.7107V0.437866C18.1207 0.437866 16.0662 1.5567 13.9883 3.49687C11.9117 1.56953 9.856 0.4612 8.28683 0.4612V1.73287C9.46867 1.73287 11.221 2.67553 13.0818 4.39287C12.2827 5.23287 11.4835 6.18487 10.724 7.2407C9.50114 7.36597 8.28841 7.57569 7.0945 7.86837C6.96832 7.32212 6.86904 6.77001 6.797 6.21403C6.52867 4.03237 6.86 2.33837 7.63117 1.88803C7.8015 1.78537 8.02433 1.7387 8.28683 1.7387V0.467033C7.8085 0.467033 7.37333 0.5697 6.99767 0.785533C5.3935 1.7107 5.03417 4.59237 5.86133 8.21137C2.31117 9.30803 0 11.0592 0 12.9084C0 14.7634 2.32283 16.5215 5.88467 17.61C5.06217 21.2407 5.42733 24.1294 7.03733 25.0534C7.40833 25.2704 7.84233 25.373 8.32067 25.373C9.891 25.373 11.9455 24.2542 14.0233 22.314C16.1 24.2425 18.1545 25.3497 19.7248 25.3497C20.1753 25.3592 20.6202 25.2489 21.014 25.03C22.6182 24.106 22.9775 21.2244 22.1503 17.6054C25.6888 16.5157 28 14.7575 28 12.9084ZM20.5683 9.10153C20.3466 9.86436 20.0897 10.6165 19.7983 11.3555C19.3214 10.4277 18.7976 9.52476 18.2292 8.65003C19.04 8.7702 19.8217 8.91837 20.5695 9.10153H20.5683ZM17.955 15.1799C17.5277 15.9259 17.0688 16.6534 16.5795 17.3604C14.8671 17.5113 13.1449 17.5132 11.4322 17.3662C10.4498 15.9629 9.59062 14.4773 8.86433 12.9259C9.58951 11.3708 10.445 9.87994 11.4217 8.4692C13.1336 8.31796 14.8555 8.31562 16.5678 8.4622C17.0415 9.1412 17.5047 9.86687 17.9492 10.6322C18.3832 11.3789 18.7775 12.1372 19.1368 12.9025C18.7735 13.6771 18.3793 14.4369 17.955 15.1799ZM19.7983 14.4379C20.1063 15.202 20.37 15.9674 20.5858 16.7094C19.8392 16.8925 19.0505 17.0465 18.235 17.1655C18.8011 16.2829 19.3229 15.3725 19.7983 14.4379ZM14.0117 20.5279C13.4808 19.9795 12.95 19.3694 12.425 18.7009C12.9383 18.7242 13.4633 18.7417 13.9942 18.7417C14.5308 18.7417 15.0617 18.73 15.5808 18.7009C15.0675 19.3694 14.5367 19.9795 14.0117 20.5279ZM9.765 17.1655C8.97837 17.0516 8.19742 16.9013 7.42467 16.7152C7.63583 15.979 7.89833 15.2195 8.19467 14.4612C8.42917 14.9162 8.67533 15.3735 8.94367 15.8309C9.212 16.287 9.485 16.7327 9.765 17.1655ZM13.9825 5.28887C14.5133 5.8372 15.0442 6.44737 15.5692 7.11587C15.0558 7.09253 14.5308 7.07503 14 7.07503C13.4633 7.07503 12.9325 7.0867 12.4133 7.11587C12.9267 6.44737 13.4575 5.8372 13.9825 5.28887ZM9.75917 8.6512C9.19318 9.53195 8.67142 10.4404 8.19583 11.373C7.89625 10.6292 7.63343 9.87115 7.40833 9.10153C8.155 8.9242 8.94367 8.7702 9.75917 8.6512ZM4.59433 15.7959C2.57367 14.9349 1.267 13.8044 1.267 12.9084C1.267 12.0124 2.57367 10.876 4.59433 10.0209C5.08433 9.8097 5.621 9.6207 6.17517 9.44453C6.50067 10.5622 6.92883 11.7265 7.4585 12.92C6.95843 14.0426 6.5355 15.1979 6.19267 16.378C5.65069 16.2102 5.11727 16.0159 4.59433 15.7959ZM7.665 23.9509C6.88917 23.5075 6.552 21.8112 6.8145 19.6319C6.8775 19.0952 6.98017 18.5294 7.10617 17.953C8.22383 18.2272 9.44533 18.4384 10.7298 18.576C11.4569 19.579 12.25 20.5323 13.104 21.4297C11.2432 23.1587 9.49667 24.106 8.309 24.106C8.08493 24.1085 7.86372 24.0556 7.665 23.952V23.9509ZM21.203 19.6027C21.4713 21.7832 21.14 23.4784 20.3688 23.9287C20.1985 24.0314 19.9757 24.0769 19.7132 24.0769C18.5313 24.0769 16.779 23.1354 14.9182 21.4169C15.7686 20.5233 16.5564 19.5721 17.276 18.5702C18.4989 18.4449 19.7116 18.2352 20.9055 17.9425C21.0373 18.5189 21.1388 19.0719 21.203 19.6027ZM23.3998 15.7959C22.9098 16.007 22.3732 16.196 21.819 16.3722C21.4701 15.1861 21.0414 14.0249 20.5357 12.8967C21.0607 11.7102 21.4818 10.5517 21.8015 9.4387C22.3452 9.60707 22.8805 9.80135 23.4057 10.0209C25.4263 10.8819 26.733 12.0124 26.733 12.9084C26.7272 13.8044 25.4205 14.9407 23.3998 15.7959Z" fill="#C4C4C4"/>
<path d="M13.9939 15.517C14.6858 15.517 15.3493 15.2422 15.8385 14.753C16.3277 14.2637 16.6026 13.6002 16.6026 12.9083C16.6026 12.2165 16.3277 11.553 15.8385 11.0637C15.3493 10.5745 14.6858 10.2997 13.9939 10.2997C13.3021 10.2997 12.6385 10.5745 12.1493 11.0637C11.6601 11.553 11.3853 12.2165 11.3853 12.9083C11.3853 13.6002 11.6601 14.2637 12.1493 14.753C12.6385 15.2422 13.3021 15.517 13.9939 15.517Z" fill="#C4C4C4"/>
</svg>
